<svg width="456" height="456" viewBox="0 0 456 456" fill="none" xmlns="http://www.w3.org/2000/svg">
<path opacity="0.37" d="M191.681 20.9685C214.155 7.99316 241.845 7.99317 264.319 20.9685L389.135 93.0315C411.609 106.007 425.454 129.986 425.454 155.937V300.063C425.454 326.014 411.609 349.993 389.135 362.969L264.319 435.031C241.845 448.007 214.155 448.007 191.681 435.031L66.8648 362.969C44.3908 349.993 30.5462 326.014 30.5462 300.063V155.937C30.5462 129.986 44.3908 106.007 66.8648 93.0315L191.681 20.9685Z" fill="url(#paint0_linear)"/>
<path d="M195.162 40.8077C215.482 29.0757 240.518 29.0757 260.838 40.8077L373.694 105.965C394.015 117.697 406.533 139.379 406.533 162.843V293.157C406.533 316.621 394.015 338.303 373.694 350.035L260.838 415.192C240.518 426.924 215.482 426.924 195.162 415.192L82.306 350.035C61.9856 338.303 49.4677 316.621 49.4677 293.157V162.843C49.4677 139.379 61.9856 117.697 82.306 105.965L195.162 40.8077Z" fill="url(#paint1_linear)"/>
<path fill-rule="evenodd" clip-rule="evenodd" d="M259.926 82.7678C239.605 71.0358 214.57 71.0358 194.249 82.7678L116.942 127.401C96.6214 139.133 84.1035 160.815 84.1035 184.279V273.546C84.1035 297.01 96.6214 318.691 116.942 330.423L194.249 375.057C214.57 386.789 239.605 386.789 259.926 375.057L337.233 330.423C357.553 318.691 370.071 297.01 370.071 273.546V184.279C370.071 160.815 357.553 139.133 337.233 127.401L259.926 82.7678ZM136.571 221.012L147.259 237H169.343L149.733 207.85L168.636 178.082H149.468L140.723 194.423L129.769 178.082H107.686L127.738 207.938L108.834 237H127.649L136.571 221.012ZM217.729 178.082H175.948V237H217.729V223.75H193.614V214.122H214.284V200.872H193.703V191.332H217.729V178.082ZM281.299 237V178.082H265.222V207.055L243.051 178.082H228.741V237H244.817V206.878L268.932 237H281.299ZM318.629 178.082H292.748V237H318.629C328.817 237 336.325 234.556 341.154 229.668C345.983 224.722 348.398 217.361 348.398 207.585C348.398 197.751 345.983 190.389 341.154 185.502C336.384 180.555 328.876 178.082 318.629 178.082ZM326.668 219.775C324.312 222.425 320.897 223.75 316.421 223.75H310.414V191.332H316.421C325.667 191.332 330.289 196.749 330.289 207.585C330.289 213.062 329.082 217.125 326.668 219.775ZM150.764 268.525H158.67V293H168.138V268.525H176.233V261.424H150.764V268.525ZM183.376 289.591C186.248 292.337 190.13 293.71 195.022 293.71C200.072 293.71 203.985 292.306 206.762 289.497C209.571 286.656 210.976 282.554 210.976 277.188C210.976 271.697 209.54 267.578 206.668 264.833C203.796 262.087 199.914 260.714 195.022 260.714C189.972 260.714 186.043 262.134 183.234 264.975C180.457 267.783 179.068 271.87 179.068 277.236C179.068 282.727 180.504 286.846 183.376 289.591ZM199.567 284.1C198.525 285.457 197.01 286.136 195.022 286.136C193.034 286.136 191.503 285.473 190.43 284.147C189.388 282.79 188.868 280.502 188.868 277.283C188.868 274.032 189.388 271.728 190.43 270.371C191.503 268.983 193.034 268.288 195.022 268.288C197.01 268.288 198.525 268.967 199.567 270.324C200.64 271.65 201.176 273.922 201.176 277.141C201.176 280.392 200.64 282.711 199.567 284.1ZM225.232 283.39L226.794 281.591L233.753 293H245.446L233.374 274.159L244.547 261.424H232.617L225.232 272.596V261.424H215.716V293H225.232V283.39ZM271.626 261.424H249.234V293H271.626V285.899H258.702V280.739H269.779V273.638H258.749V268.525H271.626V261.424ZM305.694 293V261.424H297.078V276.952L285.196 261.424H277.527V293H286.143V276.857L299.067 293H305.694Z" fill="white"/>
<defs>
<linearGradient id="paint0_linear" x1="378.954" y1="53.5932" x2="278.921" y2="583.726" gradientUnits="userSpaceOnUse">
<stop stop-color="#2042B8"/>
<stop offset="0.933726" stop-color="#FF6600"/>
</linearGradient>
<linearGradient id="paint1_linear" x1="364.488" y1="70.306" x2="274.041" y2="549.638" gradientUnits="userSpaceOnUse">
<stop stop-color="#2042B8"/>
<stop offset="0.933726" stop-color="#FF6600"/>
</linearGradient>
</defs>
</svg>
